<svg width="23.000000" height="23.000000" viewBox="0 0 23 23" fill="none" xmlns="http://www.w3.org/2000/svg" xmlns:xlink="http://www.w3.org/1999/xlink">
	<desc>
			Created with Pixso.
	</desc>
	<defs/>
	<path id="path" d="M21.0392 0.203049C21.0392 0.203049 23.1668 -0.792519 22.9895 1.6253C22.9304 2.62088 22.3985 6.10538 21.9848 9.87435L20.5663 21.039C20.5663 21.039 20.4482 22.6746 19.3843 22.959C18.3204 23.2435 16.7247 21.9635 16.4292 21.679C16.1928 21.4657 11.9966 18.2656 10.519 16.7011C10.1053 16.2745 9.63246 15.4211 10.5781 14.4255L16.7838 7.31432C17.493 6.46096 18.2023 4.46982 15.2472 6.88764L6.97289 13.6433C6.97289 13.6433 6.02726 14.3544 4.25424 13.7144L0.412586 12.2922C0.412586 12.2922 -1.00586 11.2255 1.41732 10.1588C7.32753 6.81647 14.5971 3.40308 21.0392 0.203049Z" fill="#FFFFFF" fill-opacity="1.000000" fill-rule="nonzero"/>
</svg>
