<svg width="28.478889" height="16.612701" viewBox="0 0 28.4789 16.6127" fill="none" xmlns="http://www.w3.org/2000/svg" xmlns:xlink="http://www.w3.org/1999/xlink">
	<desc>
			Created with Pixso.
	</desc>
	<defs/>
	<path id="Vector" d="M27.8255 1.1249C28.0234 0.476475 27.8255 0 26.8833 0L23.7677 0C22.9755 0 22.6102 0.411602 22.4122 0.865475C22.4122 0.865475 20.8277 4.65876 18.5832 7.1227C17.8571 7.83598 17.527 8.06297 17.1309 8.06297C16.9329 8.06297 16.6357 7.83598 16.6357 7.18761L16.6357 1.1249C16.6357 0.34679 16.4163 0 15.7561 0L10.8601 0C10.3651 0 10.0673 0.361137 10.0673 0.703407C10.0673 1.44104 11.1895 1.61116 11.3052 3.68613L11.3052 8.19267C11.3052 9.18066 11.1235 9.35983 10.7274 9.35983C9.67124 9.35983 7.10201 5.54962 5.57822 1.18972C5.2796 0.342304 4.98008 0 4.18383 0L1.06822 0C0.178047 0 0 0.411602 0 0.865475C0 1.67603 1.05626 5.69625 4.91812 11.0133C7.49267 14.6443 11.12 16.6127 14.4208 16.6127C16.4012 16.6127 16.6463 16.1756 16.6463 15.4225L16.6463 12.6781C16.6463 11.8038 16.8339 11.6292 17.461 11.6292C17.9231 11.6292 18.7153 11.8562 20.5637 13.607C22.6762 15.6819 23.0245 16.6127 24.2127 16.6127L27.3284 16.6127C28.2185 16.6127 28.6636 16.1756 28.4068 15.3128C28.1258 14.4529 27.1173 13.2054 25.779 11.7266C25.0528 10.8836 23.9635 9.97581 23.6334 9.52181C23.1713 8.93835 23.3034 8.67896 23.6334 8.16028C23.6334 8.16028 27.4294 2.90802 27.8255 1.1249Z" fill="#FFFFFF" fill-opacity="1.000000" fill-rule="evenodd"/>
</svg>
